<svg width="220" height="55" viewBox="0 0 220 55" fill="none" xmlns="http://www.w3.org/2000/svg">
<path d="M23.9261 10.0552L9.80249 24.5302C4.19348 30.2788 4.3066 39.4859 10.0552 45.0949C15.8037 50.7039 25.0108 50.5908 30.6199 44.8422L44.7435 30.3672C50.3525 24.6187 50.2394 15.4115 44.4908 9.80254C38.7423 4.19353 29.5351 4.30666 23.9261 10.0552Z" fill="url(#paint0_linear_191_92)" stroke="#0D0C0E" stroke-width="0.5"/>
<path d="M12.457 27.1203L26.5806 12.6453C30.7592 8.36279 37.6182 8.27851 41.9007 12.4571C46.1832 16.6356 46.2675 23.4946 42.089 27.7772L27.9653 42.2522C23.7868 46.5347 16.9277 46.6189 12.6452 42.4404C8.36274 38.2619 8.27846 31.4028 12.457 27.1203ZM9.80249 24.5302C4.19348 30.2788 4.3066 39.4859 10.0552 45.0949C15.8037 50.7039 25.0108 50.5908 30.6199 44.8422L44.7435 30.3672C50.3525 24.6187 50.2394 15.4115 44.4908 9.80254C38.7423 4.19353 29.5351 4.30665 23.9261 10.0552L9.80249 24.5302Z" fill="#0D0C0E" stroke="#0D0C0E" stroke-width="0.5"/>
<path d="M48.5299 10.0552L34.4062 24.5302C28.7972 30.2788 28.9104 39.4859 34.6589 45.0949C40.4075 50.7039 49.6146 50.5908 55.2236 44.8422L69.3472 30.3672C74.9563 24.6187 74.8431 15.4115 69.0946 9.80254C63.346 4.19353 54.1389 4.30666 48.5299 10.0552Z" fill="url(#paint1_linear_191_92)" stroke="#0D0C0E" stroke-width="0.5"/>
<path d="M37.0608 27.1203L51.1844 12.6453C55.3629 8.36279 62.222 8.27851 66.5045 12.4571C70.787 16.6356 70.8713 23.4946 66.6927 27.7772L52.5691 42.2522C48.3905 46.5347 41.5315 46.6189 37.249 42.4404C32.9665 38.2619 32.8822 31.4028 37.0608 27.1203ZM34.4062 24.5302C28.7972 30.2788 28.9104 39.4859 34.6589 45.0949C40.4075 50.7039 49.6146 50.5908 55.2236 44.8422L69.3472 30.3672C74.9563 24.6187 74.8431 15.4115 69.0946 9.80254C63.346 4.19353 54.1389 4.30665 48.5299 10.0552L34.4062 24.5302Z" fill="#0D0C0E" stroke="#0D0C0E" stroke-width="0.5"/>
<path d="M103.821 35.8823C102.475 35.8823 101.188 35.6917 99.9604 35.3105C98.7325 34.9134 97.7653 34.4051 97.0588 33.7857L97.9924 31.9273C98.6652 32.4833 99.5231 32.9439 100.566 33.3092C101.609 33.6745 102.694 33.8572 103.821 33.8572C104.847 33.8572 105.679 33.746 106.319 33.5236C106.958 33.3012 107.429 32.9995 107.732 32.6183C108.034 32.2212 108.186 31.7764 108.186 31.2841C108.186 30.7122 107.984 30.2516 107.58 29.9022C107.193 29.5528 106.68 29.2748 106.041 29.0683C105.419 28.8459 104.729 28.6553 103.972 28.4965C103.215 28.3377 102.45 28.155 101.676 27.9485C100.919 27.7262 100.221 27.4482 99.5819 27.1146C98.9596 26.7811 98.4549 26.3364 98.0681 25.7804C97.6812 25.2086 97.4878 24.478 97.4878 23.5885C97.4878 22.7308 97.7233 21.9446 98.1942 21.2298C98.682 20.4992 99.4221 19.9194 100.415 19.4906C101.424 19.0459 102.702 18.8235 104.25 18.8235C105.276 18.8235 106.293 18.9506 107.303 19.2047C108.312 19.4588 109.186 19.8241 109.927 20.3006L109.094 22.2067C108.337 21.7302 107.538 21.3887 106.697 21.1822C105.856 20.9598 105.04 20.8486 104.25 20.8486C103.257 20.8486 102.441 20.9678 101.802 21.206C101.163 21.4443 100.692 21.7619 100.389 22.159C100.103 22.5561 99.9604 23.0008 99.9604 23.4932C99.9604 24.0809 100.154 24.5495 100.541 24.8989C100.944 25.2483 101.457 25.5263 102.08 25.7328C102.719 25.9393 103.417 26.1299 104.174 26.3046C104.931 26.4634 105.688 26.6461 106.445 26.8526C107.218 27.0591 107.917 27.3291 108.539 27.6626C109.178 27.9962 109.691 28.4409 110.078 28.9968C110.465 29.5528 110.658 30.2675 110.658 31.1411C110.658 31.9829 110.414 32.7692 109.927 33.4998C109.439 34.2145 108.682 34.7943 107.656 35.239C106.647 35.6679 105.368 35.8823 103.821 35.8823Z" fill="white"/>
<path d="M123.579 35.8823C122.233 35.8823 120.98 35.6679 119.819 35.239C118.676 34.8102 117.683 34.2145 116.842 33.4521C116.001 32.6739 115.345 31.7685 114.874 30.7361C114.403 29.7036 114.168 28.5759 114.168 27.3529C114.168 26.1299 114.403 25.0021 114.874 23.9697C115.345 22.9373 116.001 22.0399 116.842 21.2775C117.683 20.4992 118.676 19.8956 119.819 19.4668C120.963 19.0379 122.216 18.8235 123.579 18.8235C124.925 18.8235 126.161 19.0379 127.288 19.4668C128.432 19.8797 129.424 20.4754 130.265 21.2537C131.123 22.0161 131.779 22.9135 132.233 23.9459C132.704 24.9783 132.94 26.114 132.94 27.3529C132.94 28.5918 132.704 29.7275 132.233 30.7599C131.779 31.7923 131.123 32.6977 130.265 33.476C129.424 34.2384 128.432 34.834 127.288 35.2629C126.161 35.6758 124.925 35.8823 123.579 35.8823ZM123.579 33.7619C124.554 33.7619 125.454 33.603 126.279 33.2854C127.12 32.9677 127.843 32.523 128.448 31.9512C129.071 31.3635 129.55 30.6805 129.887 29.9022C130.24 29.1239 130.416 28.2741 130.416 27.3529C130.416 26.4317 130.24 25.5819 129.887 24.8036C129.55 24.0253 129.071 23.3503 128.448 22.7785C127.843 22.1908 127.12 21.7381 126.279 21.4204C125.454 21.1028 124.554 20.9439 123.579 20.9439C122.586 20.9439 121.67 21.1028 120.829 21.4204C120.005 21.7381 119.281 22.1908 118.659 22.7785C118.037 23.3503 117.549 24.0253 117.195 24.8036C116.859 25.5819 116.691 26.4317 116.691 27.3529C116.691 28.2741 116.859 29.1239 117.195 29.9022C117.549 30.6805 118.037 31.3635 118.659 31.9512C119.281 32.523 120.005 32.9677 120.829 33.2854C121.67 33.603 122.586 33.7619 123.579 33.7619Z" fill="white"/>
<path d="M145.955 35.8823C144.609 35.8823 143.364 35.6758 142.221 35.2629C141.094 34.834 140.11 34.2384 139.269 33.476C138.444 32.6977 137.797 31.7923 137.326 30.7599C136.855 29.7275 136.619 28.5918 136.619 27.3529C136.619 26.114 136.855 24.9783 137.326 23.9459C137.797 22.9135 138.453 22.0161 139.294 21.2537C140.135 20.4754 141.119 19.8797 142.246 19.4668C143.39 19.0379 144.634 18.8235 145.98 18.8235C147.342 18.8235 148.596 19.0459 149.739 19.4906C150.9 19.9194 151.884 20.5627 152.691 21.4204L151.051 22.9214C150.379 22.2543 149.622 21.7619 148.781 21.4443C147.94 21.1107 147.04 20.9439 146.081 20.9439C145.089 20.9439 144.163 21.1028 143.306 21.4204C142.464 21.7381 141.733 22.1828 141.11 22.7546C140.488 23.3264 140 24.0094 139.647 24.8036C139.311 25.5819 139.142 26.4317 139.142 27.3529C139.142 28.2741 139.311 29.1318 139.647 29.926C140 30.7043 140.488 31.3794 141.11 31.9512C141.733 32.523 142.464 32.9677 143.306 33.2854C144.163 33.603 145.089 33.7619 146.081 33.7619C147.04 33.7619 147.94 33.603 148.781 33.2854C149.622 32.9518 150.379 32.4435 151.051 31.7606L152.691 33.2615C151.884 34.1192 150.9 34.7705 149.739 35.2152C148.596 35.6599 147.334 35.8823 145.955 35.8823Z" fill="white"/>
<path d="M157.552 35.6917V19.0141H160.075V35.6917H157.552Z" fill="white"/>
<path d="M174.522 35.8823C173.176 35.8823 171.932 35.6758 170.788 35.2629C169.661 34.834 168.677 34.2384 167.836 33.476C167.011 32.6977 166.364 31.7923 165.893 30.7599C165.422 29.7275 165.186 28.5918 165.186 27.3529C165.186 26.114 165.422 24.9783 165.893 23.9459C166.364 22.9135 167.02 22.0161 167.861 21.2537C168.702 20.4754 169.686 19.8797 170.813 19.4668C171.957 19.0379 173.201 18.8235 174.547 18.8235C175.91 18.8235 177.163 19.0459 178.307 19.4906C179.467 19.9194 180.451 20.5627 181.259 21.4204L179.619 22.9214C178.946 22.2543 178.189 21.7619 177.348 21.4443C176.507 21.1107 175.607 20.9439 174.648 20.9439C173.656 20.9439 172.73 21.1028 171.873 21.4204C171.032 21.7381 170.3 22.1828 169.678 22.7546C169.055 23.3264 168.567 24.0094 168.214 24.8036C167.878 25.5819 167.71 26.4317 167.71 27.3529C167.71 28.2741 167.878 29.1318 168.214 29.926C168.567 30.7043 169.055 31.3794 169.678 31.9512C170.3 32.523 171.032 32.9677 171.873 33.2854C172.73 33.603 173.656 33.7619 174.648 33.7619C175.607 33.7619 176.507 33.603 177.348 33.2854C178.189 32.9518 178.946 32.4435 179.619 31.7606L181.259 33.2615C180.451 34.1192 179.467 34.7705 178.307 35.2152C177.163 35.6599 175.901 35.8823 174.522 35.8823Z" fill="white"/>
<path d="M183.026 35.6917L191.024 19.0141H193.522L201.546 35.6917H198.896L191.756 20.3483H192.765L185.625 35.6917H183.026ZM186.432 31.5223L187.113 29.6163H197.054L197.786 31.5223H186.432Z" fill="white"/>
<path d="M205.442 35.6917V19.0141H212.33C213.877 19.0141 215.198 19.2444 216.291 19.705C217.384 20.1656 218.225 20.8327 218.814 21.7063C219.403 22.5799 219.697 23.6203 219.697 24.8274C219.697 26.0346 219.403 27.0749 218.814 27.9485C218.225 28.8062 217.384 29.4654 216.291 29.926C215.198 30.3866 213.877 30.6169 212.33 30.6169H206.829L207.965 29.521V35.6917H205.442ZM217.25 35.6917L212.759 29.6401H215.458L220 35.6917H217.25ZM207.965 29.7592L206.829 28.5918H212.254C213.869 28.5918 215.088 28.2662 215.913 27.615C216.754 26.9479 217.174 26.0187 217.174 24.8274C217.174 23.6362 216.754 22.7149 215.913 22.0637C215.088 21.4125 213.869 21.0869 212.254 21.0869H206.829L207.965 19.8956V29.7592Z" fill="white"/>
<defs>
<linearGradient id="paint0_linear_191_92" x1="-19.5775" y1="39.6499" x2="43.7177" y2="3.90606" gradientUnits="userSpaceOnUse">
<stop stop-color="#00FFEA"/>
<stop offset="1" stop-color="#00B2FF"/>
</linearGradient>
<linearGradient id="paint1_linear_191_92" x1="5.02625" y1="39.6499" x2="68.3215" y2="3.90606" gradientUnits="userSpaceOnUse">
<stop stop-color="#00FFEA"/>
<stop offset="1" stop-color="#00B2FF"/>
</linearGradient>
</defs>
</svg>
