<svg width="374" height="94" viewBox="0 0 374 94" fill="none" xmlns="http://www.w3.org/2000/svg">
<path d="M40.7996 17.216L16.7895 41.8235C7.32166 51.5269 7.51261 67.0682 17.216 76.536C26.9194 86.0038 42.4607 85.8129 51.9285 76.1095L75.9387 51.502C85.4065 41.7986 85.2155 26.2573 75.5122 16.7895C65.8088 7.32165 50.2675 7.51261 40.7996 17.216Z" fill="url(#paint0_linear_130_5)" stroke="white" stroke-width="0.5"/>
<path d="M21.0517 45.9822L45.0618 21.3747C52.2329 14.0253 64.004 13.8806 71.3534 21.0517C78.7029 28.2227 78.8475 39.9938 71.6765 47.3433L47.6663 71.9508C40.4953 79.3002 28.7241 79.4449 21.3747 72.2738C14.0253 65.1028 13.8806 53.3317 21.0517 45.9822ZM16.7895 41.8235C7.32166 51.5269 7.51261 67.0682 17.216 76.536C26.9194 86.0038 42.4607 85.8129 51.9285 76.1095L75.9387 51.502C85.4065 41.7986 85.2155 26.2573 75.5122 16.7895C65.8088 7.32165 50.2675 7.5126 40.7996 17.216L16.7895 41.8235Z" fill="white" stroke="white" stroke-width="0.5"/>
<path d="M82.6261 17.216L58.6159 41.8235C49.1481 51.5269 49.339 67.0682 59.0424 76.536C68.7458 86.0038 84.2871 85.8129 93.7549 76.1095L117.765 51.502C127.233 41.7986 127.042 26.2573 117.339 16.7895C107.635 7.32165 92.0939 7.51261 82.6261 17.216Z" fill="url(#paint1_linear_130_5)" stroke="white" stroke-width="0.5"/>
<path d="M62.8781 45.9822L86.8882 21.3747C94.0593 14.0253 105.83 13.8806 113.18 21.0517C120.529 28.2227 120.674 39.9938 113.503 47.3433L89.4927 71.9508C82.3217 79.3002 70.5505 79.4449 63.2011 72.2738C55.8517 65.1028 55.707 53.3317 62.8781 45.9822ZM58.6159 41.8235C49.1481 51.5269 49.339 67.0682 59.0424 76.536C68.7458 86.0038 84.2871 85.8129 93.7549 76.1095L117.765 51.502C127.233 41.7986 127.042 26.2573 117.339 16.7895C107.635 7.32165 92.0939 7.5126 82.6261 17.216L58.6159 41.8235Z" fill="white" stroke="white" stroke-width="0.5"/>
<path d="M176.495 61C174.208 61 172.02 60.676 169.933 60.0279C167.845 59.3529 166.201 58.4888 165 57.4358L166.587 54.2765C167.731 55.2216 169.189 56.0047 170.962 56.6257C172.735 57.2467 174.579 57.5573 176.495 57.5573C178.24 57.5573 179.655 57.3682 180.742 56.9902C181.828 56.6122 182.629 56.0992 183.144 55.4511C183.658 54.7761 183.916 54.02 183.916 53.183C183.916 52.2109 183.572 51.4278 182.886 50.8338C182.229 50.2398 181.356 49.7672 180.27 49.4162C179.212 49.0382 178.039 48.7142 176.753 48.4441C175.466 48.1741 174.165 47.8636 172.849 47.5126C171.563 47.1345 170.376 46.662 169.289 46.095C168.231 45.5279 167.373 44.7719 166.716 43.8268C166.058 42.8547 165.729 41.6127 165.729 40.1006C165.729 38.6425 166.13 37.3059 166.93 36.0908C167.759 34.8487 169.018 33.8631 170.705 33.1341C172.42 32.378 174.594 32 177.224 32C178.969 32 180.699 32.216 182.414 32.648C184.13 33.0801 185.617 33.7011 186.875 34.5112L185.46 37.7514C184.173 36.9413 182.815 36.3608 181.385 36.0098C179.955 35.6317 178.568 35.4427 177.224 35.4427C175.537 35.4427 174.15 35.6453 173.064 36.0503C171.977 36.4553 171.177 36.9953 170.662 37.6704C170.176 38.3454 169.933 39.1015 169.933 39.9385C169.933 40.9376 170.261 41.7342 170.919 42.3282C171.605 42.9223 172.478 43.3948 173.536 43.7458C174.622 44.0968 175.809 44.4209 177.096 44.7179C178.382 44.9879 179.669 45.2984 180.956 45.6494C182.271 46.0005 183.458 46.4595 184.516 47.0265C185.603 47.5936 186.475 48.3496 187.133 49.2947C187.79 50.2398 188.119 51.4548 188.119 52.9399C188.119 54.371 187.704 55.7076 186.875 56.9497C186.046 58.1648 184.759 59.1504 183.015 59.9064C181.299 60.6355 179.126 61 176.495 61Z" fill="#1C1C1C"/>
<path d="M210.084 61C207.796 61 205.666 60.6355 203.693 59.9064C201.749 59.1774 200.062 58.1648 198.632 56.8687C197.202 55.5456 196.087 54.0065 195.286 52.2514C194.486 50.4963 194.085 48.5791 194.085 46.5C194.085 44.4209 194.486 42.5037 195.286 40.7486C196.087 38.9935 197.202 37.4679 198.632 36.1718C200.062 34.8487 201.749 33.8226 203.693 33.0936C205.638 32.3645 207.768 32 210.084 32C212.372 32 214.473 32.3645 216.389 33.0936C218.334 33.7956 220.021 34.8082 221.451 36.1313C222.909 37.4274 224.024 38.953 224.796 40.7081C225.597 42.4632 225.997 44.3939 225.997 46.5C225.997 48.6061 225.597 50.5368 224.796 52.2919C224.024 54.047 222.909 55.5861 221.451 56.9092C220.021 58.2053 218.334 59.2179 216.389 59.9469C214.473 60.649 212.372 61 210.084 61ZM210.084 57.3953C211.743 57.3953 213.272 57.1252 214.674 56.5852C216.103 56.0452 217.333 55.2891 218.362 54.317C219.42 53.318 220.235 52.1569 220.807 50.8338C221.408 49.5107 221.708 48.0661 221.708 46.5C221.708 44.9339 221.408 43.4893 220.807 42.1662C220.235 40.8431 219.42 39.6955 218.362 38.7235C217.333 37.7244 216.103 36.9548 214.674 36.4148C213.272 35.8748 211.743 35.6047 210.084 35.6047C208.397 35.6047 206.839 35.8748 205.409 36.4148C204.008 36.9548 202.778 37.7244 201.72 38.7235C200.662 39.6955 199.833 40.8431 199.232 42.1662C198.66 43.4893 198.374 44.9339 198.374 46.5C198.374 48.0661 198.66 49.5107 199.232 50.8338C199.833 52.1569 200.662 53.318 201.72 54.317C202.778 55.2891 204.008 56.0452 205.409 56.5852C206.839 57.1252 208.397 57.3953 210.084 57.3953Z" fill="#1C1C1C"/>
<path d="M248.123 61C245.835 61 243.719 60.649 241.775 59.9469C239.859 59.2179 238.186 58.2053 236.757 56.9092C235.355 55.5861 234.254 54.047 233.454 52.2919C232.653 50.5368 232.253 48.6061 232.253 46.5C232.253 44.3939 232.653 42.4632 233.454 40.7081C234.254 38.953 235.37 37.4274 236.799 36.1313C238.229 34.8082 239.902 33.7956 241.818 33.0936C243.762 32.3645 245.878 32 248.166 32C250.482 32 252.613 32.378 254.557 33.1341C256.53 33.8631 258.203 34.9567 259.575 36.4148L256.787 38.9665C255.644 37.8324 254.357 36.9953 252.927 36.4553C251.497 35.8883 249.967 35.6047 248.338 35.6047C246.65 35.6047 245.078 35.8748 243.619 36.4148C242.19 36.9548 240.946 37.7109 239.888 38.683C238.83 39.655 238 40.8161 237.4 42.1662C236.828 43.4893 236.542 44.9339 236.542 46.5C236.542 48.0661 236.828 49.5242 237.4 50.8743C238 52.1974 238.83 53.345 239.888 54.317C240.946 55.2891 242.19 56.0452 243.619 56.5852C245.078 57.1252 246.65 57.3953 248.338 57.3953C249.967 57.3953 251.497 57.1252 252.927 56.5852C254.357 56.0182 255.644 55.1541 256.787 53.993L259.575 56.5447C258.203 58.0028 256.53 59.1099 254.557 59.8659C252.613 60.622 250.468 61 248.123 61Z" fill="#1C1C1C"/>
<path d="M267.839 60.676V32.324H272.128V60.676H267.839Z" fill="#1C1C1C"/>
<path d="M296.687 61C294.4 61 292.284 60.649 290.339 59.9469C288.423 59.2179 286.75 58.2053 285.321 56.9092C283.92 55.5861 282.819 54.047 282.018 52.2919C281.217 50.5368 280.817 48.6061 280.817 46.5C280.817 44.3939 281.217 42.4632 282.018 40.7081C282.819 38.953 283.934 37.4274 285.364 36.1313C286.793 34.8082 288.466 33.7956 290.382 33.0936C292.326 32.3645 294.442 32 296.73 32C299.046 32 301.177 32.378 303.121 33.1341C305.094 33.8631 306.767 34.9567 308.139 36.4148L305.351 38.9665C304.208 37.8324 302.921 36.9953 301.491 36.4553C300.061 35.8883 298.532 35.6047 296.902 35.6047C295.215 35.6047 293.642 35.8748 292.183 36.4148C290.754 36.9548 289.51 37.7109 288.452 38.683C287.394 39.655 286.565 40.8161 285.964 42.1662C285.392 43.4893 285.106 44.9339 285.106 46.5C285.106 48.0661 285.392 49.5242 285.964 50.8743C286.565 52.1974 287.394 53.345 288.452 54.317C289.51 55.2891 290.754 56.0452 292.183 56.5852C293.642 57.1252 295.215 57.3953 296.902 57.3953C298.532 57.3953 300.061 57.1252 301.491 56.5852C302.921 56.0182 304.208 55.1541 305.351 53.993L308.139 56.5447C306.767 58.0028 305.094 59.1099 303.121 59.8659C301.177 60.622 299.032 61 296.687 61Z" fill="#1C1C1C"/>
<path d="M311.144 60.676L324.741 32.324H328.988L342.627 60.676H338.124L325.985 34.5922H327.701L315.562 60.676H311.144ZM316.935 53.588L318.093 50.3478H334.993L336.236 53.588H316.935Z" fill="#1C1C1C"/>
<path d="M349.251 60.676V32.324H360.961C363.591 32.324 365.836 32.7155 367.695 33.4986C369.553 34.2817 370.983 35.4157 371.984 36.9008C372.985 38.3859 373.485 40.1546 373.485 42.2067C373.485 44.2588 372.985 46.0275 371.984 47.5126C370.983 48.9707 369.553 50.0912 367.695 50.8743C365.836 51.6574 363.591 52.0489 360.961 52.0489H351.61L353.54 50.1858V60.676H349.251ZM369.325 60.676L361.69 50.3883H366.279L374 60.676H369.325ZM353.54 50.5908L351.61 48.6061H360.832C363.577 48.6061 365.65 48.0526 367.051 46.9455C368.481 45.8115 369.196 44.2318 369.196 42.2067C369.196 40.1816 368.481 38.6155 367.051 37.5084C365.65 36.4013 363.577 35.8478 360.832 35.8478H351.61L353.54 33.8226V50.5908Z" fill="#1C1C1C"/>
<defs>
<linearGradient id="paint0_linear_130_5" x1="-33.2818" y1="67.4047" x2="74.3202" y2="6.64021" gradientUnits="userSpaceOnUse">
<stop stop-color="#00FFEA"/>
<stop offset="1" stop-color="#00B2FF"/>
</linearGradient>
<linearGradient id="paint1_linear_130_5" x1="8.54464" y1="67.4047" x2="116.147" y2="6.64021" gradientUnits="userSpaceOnUse">
<stop stop-color="#00FFEA"/>
<stop offset="1" stop-color="#00B2FF"/>
</linearGradient>
</defs>
</svg>
